<svg width="200" height="200" viewBox="0 0 200 200" fill="none" xmlns="http://www.w3.org/2000/svg">
<path d="M178.172 67.6993C178.23 78.0317 178.273 88.3641 178.3 98.6965C178.313 103.494 178.33 108.292 178.358 113.089C178.383 117.269 178.399 121.45 178.405 125.631C178.408 127.845 178.415 130.059 178.433 132.273C178.453 134.743 178.454 137.213 178.453 139.683C178.462 140.42 178.471 141.157 178.48 141.916C178.476 142.587 178.473 143.258 178.469 143.95C178.472 144.535 178.474 145.119 178.476 145.721C178.172 147.183 178.172 147.183 176.998 148.232C176.568 148.478 176.139 148.723 175.696 148.976C175.262 149.236 174.827 149.495 174.379 149.763C173.793 150.095 173.207 150.427 172.603 150.769C170.552 151.949 168.503 153.134 166.454 154.317C165.636 154.788 165.636 154.788 164.801 155.269C161.99 156.894 159.224 158.551 156.515 160.331C154.627 161.464 152.699 162.51 150.752 163.543C147.43 165.318 144.222 167.231 141.084 169.295C139.121 170.533 137.111 171.616 135.053 172.699C133.212 173.701 131.444 174.798 129.678 175.918C128.67 176.467 128.67 176.467 127.432 176.467C127.432 176.861 127.432 177.256 127.432 177.662C127.029 177.85 126.625 178.038 126.209 178.231C123.161 179.673 120.34 181.194 117.532 183.041C116.608 183.546 115.679 184.043 114.747 184.535C110.962 186.464 110.962 186.464 107.631 189.017C106.6 189.041 105.568 189.042 104.538 189.017C104.044 186.913 103.837 184.963 103.824 182.808C103.818 182.17 103.813 181.531 103.807 180.873C103.805 180.179 103.802 179.485 103.8 178.77C103.794 178.034 103.789 177.298 103.784 176.54C103.769 174.106 103.758 171.673 103.749 169.239C103.746 168.4 103.743 167.561 103.74 166.721C103.726 163.231 103.715 159.741 103.708 156.25C103.697 151.254 103.677 146.257 103.642 141.261C103.618 137.744 103.606 134.227 103.602 130.709C103.6 128.61 103.593 126.511 103.573 124.411C103.551 122.071 103.553 119.73 103.558 117.39C103.547 116.695 103.537 116.001 103.527 115.286C103.565 110.581 103.565 110.581 105.408 108.233C106.776 107.303 108.074 106.451 109.565 105.723C111.778 104.594 113.884 103.376 115.985 102.063C118.514 100.487 121.079 99.0405 123.722 97.6528C125.436 96.7233 127.046 95.6613 128.67 94.5924C129.698 93.9903 130.73 93.3931 131.764 92.7994C132.238 92.5244 132.713 92.2494 133.202 91.9661C141.045 87.4209 141.045 87.4209 142.573 86.5383C143.672 85.8994 144.767 85.2547 145.86 84.6054C146.693 84.1134 146.693 84.1134 147.542 83.6109C148.047 83.3105 148.551 83.0103 149.07 82.7005C150.327 82.0422 150.327 82.0422 151.564 82.0422C151.564 81.6478 151.564 81.2535 151.564 80.8469C152.036 80.6299 152.036 80.6299 152.517 80.4083C155.237 79.129 157.73 77.7274 160.227 76.066C161.257 75.4659 162.288 74.8684 163.321 74.2732C164.296 73.6865 165.27 73.098 166.243 72.5083C167.344 71.8515 168.446 71.1946 169.548 70.538C170.103 70.199 170.659 69.8603 171.231 69.5108C171.767 69.1935 172.304 68.876 172.856 68.5491C173.342 68.257 173.828 67.9647 174.329 67.6636C175.952 66.9969 176.531 67.2238 178.172 67.6993Z" fill="#ED7D31"/>
<path d="M23.4823 67.1018C25.8682 67.7604 27.7363 68.5763 29.7594 69.9594C32.3005 71.5713 35.0339 72.8914 37.7141 74.2732C37.7141 74.6676 37.7141 75.0623 37.7141 75.4685C38.2262 75.6102 38.7383 75.7522 39.2659 75.8982C41.8097 76.7996 43.9901 78.0001 46.2996 79.353C46.7255 79.5943 47.1515 79.8354 47.5903 80.0837C48.6529 80.7009 49.684 81.3676 50.7083 82.0425C50.7083 82.4368 50.7083 82.8312 50.7083 83.2377C51.1239 83.2832 51.5395 83.3284 51.9675 83.3754C54.4055 83.9865 56.2797 85.1339 58.4045 86.4126C58.802 86.6464 59.1996 86.8803 59.6092 87.121C62.0442 88.5608 64.427 90.0655 66.7963 91.6044C68.684 92.7377 70.6119 93.7831 72.5587 94.8167C76.7578 97.0623 80.7424 99.5806 84.7287 102.159C86.5819 103.346 88.4603 104.443 90.4308 105.438C90.9268 105.693 91.4231 105.947 91.9341 106.209C92.4016 106.442 92.8691 106.676 93.3507 106.916C94.8393 107.866 95.5595 108.664 96.4978 110.131C96.7279 111.646 96.7279 111.646 96.7249 113.386C96.7285 114.048 96.7318 114.708 96.7354 115.39C96.7297 116.112 96.724 116.835 96.7183 117.579C96.7195 118.342 96.7207 119.105 96.7219 119.891C96.7252 121.982 96.7168 124.072 96.7063 126.162C96.697 128.348 96.6976 130.534 96.697 132.72C96.6949 136.389 96.6856 140.058 96.6718 143.727C96.6538 148.442 96.6475 153.157 96.6445 157.871C96.6421 161.92 96.6343 165.969 96.6259 170.018C96.6232 171.322 96.6214 172.626 96.6199 173.93C96.6163 176.354 96.607 178.778 96.5974 181.203C96.5965 181.929 96.5959 182.655 96.5953 183.403C96.5917 184.059 96.5881 184.715 96.5845 185.391C96.5827 185.965 96.5809 186.539 96.5791 187.13C96.4978 188.419 96.4978 188.419 95.8788 189.017C94.8477 189.041 93.8158 189.042 92.7851 189.017C92.7851 188.622 92.7851 188.228 92.7851 187.822C92.3767 187.822 91.9683 187.822 91.5473 187.822C91.5473 187.427 91.5473 187.033 91.5473 186.626C90.8773 186.534 90.8773 186.534 90.1938 186.44C88.2814 185.988 86.9579 185.338 85.3597 184.236C85.3597 183.841 85.3597 183.447 85.3597 183.041C84.9258 182.991 84.492 182.942 84.0449 182.891C81.8298 182.333 80.4369 181.312 78.5531 180.053C77.6301 179.546 76.7014 179.048 75.7688 178.559C73.5177 177.369 71.3927 176.071 69.2715 174.674C67.3841 173.541 65.4562 172.495 63.5091 171.462C59.31 169.216 55.3258 166.698 51.3392 164.12C49.0414 162.647 46.6652 161.351 44.2499 160.07C41.9899 158.864 39.8482 157.553 37.7141 156.148C36.0578 155.168 34.386 154.227 32.6938 153.307C31.7139 152.771 31.7139 152.771 30.7142 152.226C30.053 151.867 29.3917 151.509 28.7104 151.14C28.2103 150.82 27.7102 150.501 27.1949 150.171C27.1949 149.777 27.1949 149.382 27.1949 148.976C26.7227 148.927 26.2505 148.877 25.764 148.827C23.7048 148.272 23.32 147.741 22.2447 145.988C22.0128 144.495 22.0128 144.495 22.0132 142.786C22.0088 142.137 22.0045 141.487 22 140.818C22.0047 140.109 22.0095 139.399 22.0143 138.668C22.0109 137.544 22.0109 137.544 22.0075 136.397C22.0033 134.344 22.0075 132.291 22.0157 130.237C22.0227 128.089 22.0202 125.94 22.019 123.791C22.0184 120.184 22.0253 116.576 22.0367 112.968C22.0498 108.796 22.052 104.624 22.0481 100.452C22.0446 96.439 22.0481 92.4262 22.055 88.4134C22.0579 86.7049 22.0584 84.9968 22.0571 83.2884C22.0557 80.9049 22.0647 78.5211 22.0748 76.1372C22.0732 75.4265 22.0717 74.716 22.0701 73.9838C22.0745 73.3359 22.0789 72.6883 22.0834 72.021C22.0847 71.4571 22.0859 70.8935 22.0872 70.3126C22.2447 68.8948 22.2447 68.8948 23.4823 67.1018Z" fill="#ED7D31"/>
<path d="M58.9077 35.4651C60.8809 36.1148 62.2456 37.0607 63.9013 38.2617C66.0555 39.8198 68.4266 41.0144 70.7803 42.263C73.0403 43.4684 75.1819 44.7795 77.3162 46.1848C78.3449 46.787 79.3762 47.3841 80.4099 47.9779C81.3125 48.5006 82.2148 49.0236 83.1171 49.5466C83.6491 49.8546 84.1811 50.1629 84.7293 50.4802C86.1237 51.2886 87.5175 52.0982 88.911 52.9081C89.3146 53.1428 89.7182 53.3772 90.1343 53.6188C90.9271 54.0793 91.7196 54.54 92.512 55.0013C95.0587 56.4796 97.6266 57.9165 100.211 59.3325C100.211 59.7269 100.211 60.1215 100.211 60.5278C100.53 60.577 100.849 60.6266 101.178 60.6773C102.863 61.178 104.27 61.949 105.782 62.8157C107.131 63.5804 108.503 64.2935 109.879 65.01C111.41 65.826 112.697 66.5909 114.056 67.6619C116.069 69.1898 118.222 70.2564 120.478 71.418C122.793 72.6422 125.059 73.9319 127.321 75.2442C127.706 75.4668 128.09 75.689 128.487 75.9182C130.863 77.3021 133.183 78.7471 135.481 80.2495C135.171 81.5939 135.171 81.5939 134.243 83.2374C133.077 83.9444 131.882 84.4672 130.625 85.0093C129.307 85.6216 128.22 86.3161 127.05 87.1593C125.21 88.4815 123.313 89.4336 121.249 90.4089C120.598 90.8404 119.947 91.2718 119.277 91.7163C117.536 92.7994 117.536 92.7994 115.68 92.7994C115.68 93.1938 115.68 93.5884 115.68 93.9946C115.246 94.2189 114.812 94.4432 114.365 94.6741C108.199 97.7838 108.199 97.7838 102.57 101.689C101.448 102.361 101.448 102.361 99.7466 102.175C99.2872 102.039 98.8278 101.904 98.3546 101.764C98.3546 101.369 98.3546 100.975 98.3546 100.569C97.8694 100.445 97.3845 100.322 96.8849 100.195C93.8374 99.0787 91.2125 97.4468 88.454 95.7877C86.776 94.8074 85.0927 93.8477 83.3877 92.9115C75.617 88.6252 75.617 88.6252 73.2168 86.7484C71.5736 85.4958 69.9047 84.7077 68.0248 83.8375C66.2754 82.9827 64.6968 81.9199 63.0842 80.8469C62.0559 80.2445 61.0243 79.6474 59.9903 79.0542C58.4828 78.1806 56.9753 77.3067 55.468 76.4325C54.3653 75.7942 53.2617 75.1576 52.1565 74.523C49.9386 73.2466 47.7464 71.9682 45.6039 70.5754C43.8571 69.4636 42.0769 68.5674 40.1896 67.6993C40.1896 67.3049 40.1896 66.9105 40.1896 66.504C39.8706 66.4548 39.5515 66.4055 39.2228 66.3548C35.2474 65.1732 31.6848 62.4941 28.2154 60.3389C26.6529 59.3795 25.0745 58.4528 23.4827 57.5398C23.4827 56.1951 23.4827 56.1951 24.1015 54.5516C25.2535 53.808 26.4173 53.2836 27.6885 52.7542C31.079 51.2793 34.1728 49.1606 37.3181 47.2517C38.8878 46.3103 40.2851 45.5567 42.046 44.9896C42.6687 44.3959 43.287 43.7978 43.9023 43.1969C44.7814 42.6472 45.6795 42.1254 46.5901 41.6258C47.1062 41.3404 47.6222 41.055 48.1539 40.7609C48.6907 40.4677 49.2276 40.1745 49.7806 39.8725C50.8445 39.2871 51.908 38.7011 52.9712 38.1147C53.4423 37.8569 53.9131 37.5992 54.3986 37.3337C57.7668 35.4345 57.7668 35.4345 58.9077 35.4651Z" fill="#ED7D31"/>
<path d="M102.063 11.523C103.919 12.3541 103.919 12.3541 105.776 13.4653C106.738 14.0373 106.738 14.0373 107.719 14.6208C108.303 14.9791 108.887 15.3373 109.488 15.7064C109.919 15.9598 110.35 16.2133 110.793 16.4744C111.809 17.0884 111.809 17.0884 113.201 18.0969C113.201 18.4913 113.201 18.8857 113.201 19.2921C113.852 19.3846 113.852 19.3846 114.516 19.4789C116.537 19.9457 118.18 20.7387 120.007 21.6826C120.007 22.077 120.007 22.4715 120.007 22.8779C120.388 22.9865 120.768 23.0951 121.16 23.207C121.66 23.3572 122.161 23.5074 122.676 23.6622C123.171 23.8078 123.667 23.9534 124.177 24.1034C125.669 24.7084 126.332 25.344 127.433 26.4636C128.254 26.9517 129.094 27.4107 129.946 27.8456C132.129 28.9897 134.298 30.1495 136.444 31.3566C136.968 31.6486 137.492 31.9406 138.032 32.2414C138.414 32.5041 138.796 32.7668 139.19 33.0374C139.19 33.4319 139.19 33.8263 139.19 34.2327C139.529 34.2966 139.869 34.3606 140.219 34.4264C144.534 35.6319 148.494 38.405 152.184 40.8064C153.561 41.5615 154.95 42.2943 156.339 43.0288C158.066 43.9644 159.736 44.9734 161.407 45.9982C162.844 46.8681 164.299 47.7035 165.758 48.5382C168.319 50.009 170.78 51.583 173.217 53.2375C174.467 53.9584 175.513 54.2902 176.935 54.5518C177.321 55.9711 177.321 55.9711 177.554 57.5398C176.316 58.7351 176.316 58.7351 174.924 59.2581C172.916 60.0514 171.295 61.1351 169.509 62.3208C168.481 62.9241 167.45 63.5213 166.415 64.1138C163.063 66.0384 159.75 67.9829 156.515 70.09C155.485 70.6904 154.454 71.2876 153.421 71.8828C152.911 72.1855 152.4 72.4883 151.874 72.8004C151.364 73.1015 150.853 73.4028 150.327 73.7131C149.817 74.0159 149.306 74.3187 148.78 74.6305C145.782 76.2552 145.782 76.2552 144.14 76.6637C142.457 76.0802 142.457 76.0802 140.736 75.095C140.137 74.7554 139.538 74.4155 138.921 74.0655C137.333 73.078 137.333 73.078 135.748 71.8457C133.825 70.3696 131.754 69.45 129.538 68.4442C128.079 67.7132 126.873 66.8769 125.576 65.9065C124.14 65.0909 122.702 64.2955 121.245 63.516C119.819 62.7531 118.393 61.9902 116.969 61.2238C115.908 60.653 114.845 60.0856 113.781 59.5194C113.385 59.2607 112.99 59.0019 112.582 58.7351C112.582 58.3407 112.582 57.9463 112.582 57.5398C112.246 57.4807 111.909 57.4213 111.562 57.3602C109.724 56.8322 108.273 55.9876 106.626 55.0375C105.645 54.4736 105.645 54.4736 104.644 53.8982C103.997 53.5223 103.349 53.1462 102.682 52.7588C102.111 52.4323 101.539 52.1057 100.951 51.769C98.1742 50.1762 95.4599 48.5275 92.7815 46.7826C90.8938 45.6497 88.9662 44.6042 87.0191 43.5707C82.8758 41.3546 78.9501 38.8766 75.0327 36.3104C73.1288 35.1382 71.14 34.1592 69.1134 33.2008C68.0305 32.4398 68.0305 32.4398 67.4505 31.2679C67.4117 30.0493 67.4117 30.0493 68.1586 29.0735C69.2625 28.2604 70.2894 27.6939 71.5496 27.1359C73.8436 26.0773 75.953 24.8506 78.0781 23.5058C79.1682 22.8779 79.1682 22.8779 81.0247 22.2802C81.2951 22.0144 81.5654 21.7487 81.8442 21.4748C83.2335 20.1517 84.7806 19.3587 86.4778 18.433C89.0598 17.0062 91.5518 15.5204 94.0189 13.9135C96.7441 12.1649 98.7269 11.204 102.063 11.523Z" fill="#ED7D31"/>
</svg>
