<svg width="200" height="200" viewBox="0 0 200 200" fill="none" xmlns="http://www.w3.org/2000/svg">
<path fill-rule="evenodd" clip-rule="evenodd" d="M183 137.086C183 139.8 180.8 142 178.086 142H94.5395C91.8253 142 89.625 139.8 89.625 137.086C89.625 134.371 91.8253 132.171 94.5395 132.171H178.086C180.8 132.171 183 134.371 183 137.086Z" fill="black"/>
<path fill-rule="evenodd" clip-rule="evenodd" d="M53.8346 139.627L18.6207 104.413C16.4598 102.253 16.4598 98.749 18.6207 96.5881L53.8346 61.3742C55.9955 59.2133 59.499 59.2133 61.6599 61.3742C63.8208 63.5351 63.8208 67.0386 61.6599 69.1995L35.892 94.9675L177.467 94.9675C180.523 94.9675 183 97.4448 183 100.501C183 103.557 180.523 106.034 177.467 106.034L35.892 106.034L61.6599 131.802C63.8208 133.963 63.8208 137.466 61.6599 139.627C59.499 141.788 55.9955 141.788 53.8346 139.627Z" fill="black"/>
<path fill-rule="evenodd" clip-rule="evenodd" d="M183 63.9146C183 66.6288 180.8 68.8291 178.086 68.8291L94.5395 68.8291C91.8253 68.8291 89.625 66.6288 89.625 63.9146C89.625 61.2004 91.8253 59.0002 94.5395 59.0002L178.086 59.0002C180.8 59.0002 183 61.2004 183 63.9146Z" fill="black"/>
</svg>
