<svg width="200" height="200" viewBox="0 0 200 200" fill="none" xmlns="http://www.w3.org/2000/svg">
<path fill-rule="evenodd" clip-rule="evenodd" d="M32.5625 32.5625V74.0625H74.0625V32.5625H32.5625ZM27.375 17C21.645 17 17 21.645 17 27.375V79.25C17 84.98 21.645 89.625 27.375 89.625H79.25C84.98 89.625 89.625 84.98 89.625 79.25V27.375C89.625 21.645 84.98 17 79.25 17H27.375Z" fill="black"/>
<path fill-rule="evenodd" clip-rule="evenodd" d="M32.5625 125.938V167.438H74.0625V125.938H32.5625ZM27.375 110.375C21.645 110.375 17 115.02 17 120.75V172.625C17 178.355 21.645 183 27.375 183H79.25C84.98 183 89.625 178.355 89.625 172.625V120.75C89.625 115.02 84.98 110.375 79.25 110.375H27.375Z" fill="black"/>
<path fill-rule="evenodd" clip-rule="evenodd" d="M125.938 32.5625V74.0625H167.438V32.5625H125.938ZM120.75 17C115.02 17 110.375 21.645 110.375 27.375V79.25C110.375 84.98 115.02 89.625 120.75 89.625H172.625C178.355 89.625 183 84.98 183 79.25V27.375C183 21.645 178.355 17 172.625 17H120.75Z" fill="black"/>
<path fill-rule="evenodd" clip-rule="evenodd" d="M125.938 125.938V167.438H167.438V125.938H125.938ZM120.75 110.375C115.02 110.375 110.375 115.02 110.375 120.75V172.625C110.375 178.355 115.02 183 120.75 183H172.625C178.355 183 183 178.355 183 172.625V120.75C183 115.02 178.355 110.375 172.625 110.375H120.75Z" fill="black"/>
</svg>
