<svg width="200" height="200" viewBox="0 0 200 200" fill="none" xmlns="http://www.w3.org/2000/svg">
<path fill-rule="evenodd" clip-rule="evenodd" d="M17 63.9145C17 61.2003 19.2003 59 21.9145 59L105.461 59C108.175 59 110.375 61.2003 110.375 63.9145C110.375 66.6287 108.175 68.829 105.461 68.829L21.9145 68.8289C19.2003 68.8289 17 66.6287 17 63.9145Z" fill="black"/>
<path fill-rule="evenodd" clip-rule="evenodd" d="M146.165 61.3726L181.379 96.5866C183.54 98.7475 183.54 102.251 181.379 104.412L146.165 139.626C144.004 141.787 140.501 141.787 138.34 139.626C136.179 137.465 136.179 133.961 138.34 131.8L164.108 106.033L22.5333 106.033C19.4774 106.033 17 103.555 17 100.499C17 97.4432 19.4774 94.9659 22.5333 94.9659L164.108 94.9659L138.34 69.198C136.179 67.0371 136.179 63.5335 138.34 61.3726C140.501 59.2117 144.005 59.2117 146.165 61.3726Z" fill="black"/>
<path fill-rule="evenodd" clip-rule="evenodd" d="M17 137.085C17 134.371 19.2003 132.171 21.9145 132.171L105.461 132.171C108.175 132.171 110.375 134.371 110.375 137.085C110.375 139.8 108.175 142 105.461 142L21.9145 142C19.2003 142 17 139.8 17 137.085Z" fill="black"/>
</svg>
